HIERARCHY
ROOT Hips
{
	OFFSET 0.000000 0.000000 0.000000 
	CHANNELS 6 Xposition Yposition Zposition Zrotation Xrotation Yrotation
	JOINT Chest
	{
		OFFSET 0.000000 20.000000 0.000000 
		CHANNELS 3 Zrotation Xrotation Yrotation
		JOINT LeftShoulder
		{
			OFFSET 20.000000 20.000000 0.000000 
			CHANNELS 3 Zrotation Xrotation Yrotation
			JOINT LeftElbow
			{
				OFFSET 0.000000 -25.000000 0.000000 
				CHANNELS 3 Zrotation Xrotation Yrotation
				JOINT LeftWrist
				{
					OFFSET 0.000000 -22.000000 0.000000 
					CHANNELS 3 Zrotation Xrotation Yrotation
					End Site
					{
						OFFSET 0.000000 -15.000000 0.000000 
					}
				}
			}
		}
		JOINT RightShoulder
		{
			OFFSET -20.000000 20.000000 0.000000 
			CHANNELS 3 Zrotation Xrotation Yrotation
			JOINT RightElbow
			{
				OFFSET 0.000000 -25.000000 0.000000 
				CHANNELS 3 Zrotation Xrotation Yrotation
				JOINT RightWrist
				{
					OFFSET 0.000000 -22.000000 0.000000 
					CHANNELS 3 Zrotation Xrotation Yrotation
					End Site
					{
						OFFSET 0.000000 -15.000000 0.000000 
					}
				}
			}
		}
		JOINT Neck
		{
			OFFSET 0.000000 20.099993 0.000000 
			CHANNELS 3 Zrotation Xrotation Yrotation
			End Site
			{
				OFFSET -0.200000 15.899995 10.500000 
			}
		}
	}
	JOINT LeftHip
	{
		OFFSET 10.000000 0.000000 0.000000 
		CHANNELS 3 Zrotation Xrotation Yrotation
		JOINT LeftKnee
		{
			OFFSET 0.000000 -50.000000 0.000000 
			CHANNELS 3 Zrotation Xrotation Yrotation
			JOINT LeftAnkle
			{
				OFFSET 0.000000 -40.000000 0.000000 
				CHANNELS 3 Zrotation Xrotation Yrotation
				End Site
				{
					OFFSET 0.000000 0.000000 20.000000 
				}
			}
		}
	}
	JOINT RightHip
	{
		OFFSET -10.000000 0.000000 0.000000 
		CHANNELS 3 Zrotation Xrotation Yrotation
		JOINT RightKnee
		{
			OFFSET 0.000000 -50.000000 0.000000 
			CHANNELS 3 Zrotation Xrotation Yrotation
			JOINT RightAnkle
			{
				OFFSET 0.000000 -40.000000 0.000000 
				CHANNELS 3 Zrotation Xrotation Yrotation
				End Site
				{
					OFFSET 0.000000 0.000000 20.000000 
				}
			}
		}
	}
}
MOTION
Frames: 16
Frame Time: 0.04170833333333333
0.000000 0.000000 0.000000  0.15921636  8.86424499 -0.13243837 -0.17538148  0.00628612 -1.90272136   98.93391959    5.65247298 -135.23370522 -1.57130188 37.36883098 91.12090547   7.09998393  -1.14939872 -97.1891743  -96.13115953  -3.42043761 134.70445198   2.45225225  26.85318246 -91.82415322  10.25633128   3.1223789  -99.60532229 -4.21478223 -0.16390034  2.12709997   4.13385037  -5.51481642 -94.58184902 -20.1250876   -7.55339871 111.62542212 -166.81812295  -21.55995843   10.04161177 -3.82355334 -7.51733904 94.42935677   23.85318053    4.26698685 -110.78747601 -14.37686338  17.69699784  11.26003153 
0.000000 0.000000 0.000000 0.64906293 7.90831827 0.04064368  0.14234897 -0.00414857 -0.43767008   68.82604749    4.96200486 -132.22487288   8.84638461  43.67054111 -96.2437783  -2.00251654  4.43304737 91.86306116 -73.36277224  -0.77630796 133.88914344 -7.70736016 33.04612974 95.55630724 -11.82503326  -3.75763784 102.37865574 -3.85214123 -0.04256889  0.73621248   1.48306844  -5.9665655  -91.66446225 -23.48786677  -8.55053039 115.05611823 -141.38769529   -6.82965875   29.88692692   2.0887938   -7.44665671 -92.42107825 -25.54220441 -10.60316284 117.82588841 -140.18821741    3.22119593   33.83224841 
0.000000 0.000000 0.000000  0.83277213 12.15559191  0.08947549  0.67646444 -0.0139696  -0.58412367   53.23046263    4.23481426 -127.56571825   14.21275536   39.39256894 -100.03113229   8.51918721   2.35842701 -98.10799765 -57.90726275   2.20266253 129.72107817 -21.69394908  42.07907919 105.15349911 -16.34264016  -6.95552202 107.79932391 -3.54726665  0.01094981 -0.28801074 -2.55081689 -9.99221753 93.13919564   23.79409023    2.73714399 -111.15560017 -39.4850628    4.34187054  31.06505778   4.89509462 -11.40502547 -96.21774342 -25.20124589 -12.29325151 118.49396688 -142.51376889    0.64851205   31.55515345 
0.000000 0.000000 0.000000  1.17429649 15.03810627  0.11520847 1.5076086  0.03640216 0.83922427   42.11191695    2.49331145 -123.03244018   24.9574777    28.31792203 -107.84846577   7.33005965  10.77327858 -96.23513242 -39.50019591   0.74228218 122.20426905 -15.63588157  42.35607007 100.99071658 -25.24433976  20.83719017 108.75042651 -4.01016702  0.05578865 -2.09272042  -5.47659506 -10.11843688  96.72353089   23.93153484   -1.14592794 -112.45442702 -36.74774182   4.27075704  29.51359295   4.75065378 -11.56439756 -96.06151768 -24.34947835 -11.31709484 117.2138892  -138.91760514    7.18729182   36.20110906 
0.000000 0.000000 0.000000  1.61089265 14.43224335  0.19021402 0.56087995 0.007543   0.23630832   21.30524448    0.40072455 -109.84923431   26.07816765   31.97882792 -108.36815843   5.64740244   0.21833967 -95.5991106  -26.19834899  -2.09659966 114.54997735 -25.7229623   29.21434886 108.29797835 -15.55638341  -2.97302447 105.78517012 -3.976413    0.04447787 -1.18560255 -7.63694125 -7.99888276 98.86199348   25.71329465   -2.60223801 -114.36386537 -35.84188529   2.51571641  29.50804723   3.25838666 -10.94128535 -94.10318612 -27.19639642 -10.2254556  118.95012906 -135.75579515   14.59259319   41.54947818 
0.000000 0.000000 0.000000  1.91432406 15.10737396  0.18255843 0.72277846 0.02531868 0.64345367   10.7493393    -1.76462551 -100.89203436   29.83276989   23.58364937 -111.49004708   7.1823033  -1.2363281 -97.2824817 -10.73453742  -3.69278111 101.27043694 -33.45317928  22.78824679 113.88082487 -11.02364577  -9.4892494  103.05700244 -4.0623264   0.02727267 -0.86346292 -8.29937568 -8.9108707  99.81169739   26.07406957   -3.76935537 -115.08862085 -35.56941351   3.14192813  29.14687381   3.2294495  -11.44812748 -94.12074514 -27.58989851 -10.2815642  119.28673347 -135.33561868   17.11741165   43.28430481 
0.000000 0.000000 0.000000  2.03588546 14.83257028  0.21245492 1.08759134 0.02192779 0.4589964    5.79912417  -0.41766059 -95.81166167   31.38251429   18.91547854 -113.06840019   8.99132075  -2.76360715 -99.33035845 -6.75919503 -5.02371485 97.37597939 -32.5510625   18.09250127 113.93249401  -8.72956815  -9.86973744 100.53908049 -3.34355688  0.00840493 -0.7914553   -9.14310038  -8.68136236 100.71789351   25.96814713   -4.83509633 -115.4359646  -34.05994149   3.88952778  27.98707366   2.89132133 -11.42338317 -93.68884805 -27.97126422 -10.3815184  119.63464977 -135.71532538   17.12688772   43.14992091 
0.000000 0.000000 0.000000  2.06505582 14.29490291  0.18925451 0.70819566 0.06949498 1.67525647   8.61328392   1.19171353 -98.35014127   32.69840042   25.37826873 -113.13844306   12.96989724   -2.11954616 -103.11568722 -10.3162388   -3.58909944 100.82619015 -30.29861946  25.22835585 111.62488    -10.52157984  -8.08051349 102.09875563 -1.76401841 -0.01435773 -1.34438498  -9.26567315  -8.9334807  100.91935614   26.70898086   -5.64492921 -116.35337122 -34.58088492   4.61100989  28.10025699   2.85545334 -11.22900673 -93.62484746 -28.19800133 -10.95710883 120.12704766 -136.284212     15.45525487   41.86282359 
0.000000 0.000000 0.000000  2.08098458 15.40788986  0.11182816  1.05044852 -0.01386686 -0.28609      12.26292636    3.0110314  -101.43624345   34.48951435   36.6754165  -113.62887698   11.06361777   -4.85261629 -101.86493953 -15.86773897  -4.03069831 106.3846372  -29.87689826  34.48798453 110.74406204  -5.44648018 -13.61977405  97.33396843 -1.18891523 -0.07136912 -2.57577328  -8.45392905 -12.81161569 101.00787169   27.52486572   -5.67126737 -116.98769121 -30.06346503   4.33229588  25.24300737   2.80903571 -13.01622438 -93.74179958 -26.957647    -9.9892106  118.63605182 -141.66253409    7.71995528   35.00905748 
0.000000 0.000000 0.000000  1.95208344 14.69868382  0.15455102 0.87062055 0.01141351 0.23616052   28.80934301    3.86298281 -114.51361201   24.30392273   40.98280415 -106.92406508   14.18234803    2.22609336 -103.29450021 -26.8332555   -2.41554989 115.14858887 -19.17146835  46.04021614 103.4413981  -12.85240964  -6.85381091 104.23992398 -1.15122795 -0.07289087 -2.58240971  -6.05336989 -13.30175451  98.06337017   29.13291527   -0.83349678 -116.25047435 -31.2143831    0.58381137  27.1936959    2.84866433 -13.78515363 -93.87767095 -27.67859085 -10.94192589 119.71962384 -144.30225149    6.77204652   33.03689827 
0.000000 0.000000 0.000000  1.78875713 10.40572466  0.21940944 -1.38744526e+00  2.83258371e-04  5.26433430e-02   48.53901495    4.04225915 -125.6668049    8.03615816  47.09460021 -95.67792925   8.52877488  -0.85495245 -98.5612636  -5.02403086e+01  1.26892468e-01  1.27511582e+02 -10.45861406  41.01471026  97.38837329 -10.80464435 -10.61031818 103.15561362 -0.61618392  0.0048985  -0.91147002  -2.55909191 -10.92007371  93.22407952   31.45006101    2.69154206 -116.66539968 -32.76172611  -0.7050166   28.67188231   0.934503   -11.54186978 -91.198281   -31.09847813  -9.6917207  121.53920457 -146.30644216    5.01031461   30.99303561 
0.000000 0.000000 0.000000 1.57618758 8.80662946 0.19734922 -2.57534546  0.0219464  -1.15238076   72.29536519    6.29011977 -132.84043456 -1.6102169  44.75762038 91.13852959 -6.03720140e+00  7.97338891e-03  9.60031386e+01 -74.22812829  -0.2655921  133.93729367 -9.42925615 32.31958122 96.80697191 -15.39542804  -4.69507045 106.13401777 -0.51044051  0.03200932 -1.14469223 -0.48275915 -9.13524222 90.58262381   28.98202371    0.65616008 -115.62985218 -36.13929391  -4.75660253  32.39189457  -3.35255155 -10.34509265  94.15768817   33.11264567    8.32906183 -116.18806831 -25.75290814   4.70648023  22.09053182 
0.000000 0.000000 0.000000 1.19997799 8.59214088 0.18337662 -1.90067157  0.03465034 -2.40824836   89.61377635    5.75047869 -135.12443779 -9.48211647 43.10076117 96.69178034 -3.05826683 -8.33032451 93.61369358 -90.8943663   -1.49266314 134.99458269 -0.38661937 36.42632126 90.27646917 -13.73860499  -3.12416063 104.09892502 -2.60164063  0.13322849 -2.22417586   4.44960812  -9.96046755 -95.45453409 -30.58720731  -4.12624502 118.54410709 -157.9885796    -9.87685475   18.13650087  -8.18636936 -12.03189729 100.45458417   36.71307006    3.41429261 -119.74953222 -23.00090302   9.81462008  18.88464404 
0.000000 0.000000 0.000000  0.5451714   7.54214493 -0.44209667 -0.45656121  0.01852949 -4.84928263  111.65737057    2.88190036 -133.47696061 -11.18038692  32.84432931  98.04285128   36.18950041  -13.82521334 -127.19035098 -110.31418083   -6.7635356   132.20897041   5.85750188  32.49786654 -94.23597836   11.34886501   -0.90856564 -101.30528085 -2.73870617  0.35057872 -6.75333698   7.87804216  -9.64143796 -99.48969112 -33.29672025  -6.35635645 121.34484631 -161.46088337   -9.6475623    15.52255504 -11.62239886 -11.23279228 104.30556072   35.74096311    1.28195434 -119.8491373  -28.78713932   8.96606624  23.18499708 
0.000000 0.000000 0.000000  0.05627683  7.47291268 -0.4314868   0.59730933  0.00809012 -3.89904957  1.22527008e+02  9.86509897e-02 -1.30161710e+02 -22.29019974  44.52518814 105.56432025   25.32578033  -23.46947066 -127.50918076 -127.78145932   -6.14055015  126.71408629   5.85768478  28.99391811 -94.30148192 -18.18259525  -8.41412544 110.15415142 -3.16717477  0.23604292 -4.10397696   10.37759174   -9.22848633 -102.25488408 -33.08604073  -9.29258142 122.66143216 -162.50829736   -9.11990819   14.78846677 -14.28277037 -11.36924221 107.35660664   33.97071879   -2.93253584 -120.29886611 -30.94236487   8.00140837  24.86142257 
0.000000 0.000000 0.000000 -0.22148144  7.91954113 -0.54906233  1.07293515e+00 -2.16975509e-03 -3.78324289e+00  134.33276083   -9.55021511 -122.9850646  -28.70108555  44.13244164 109.87444667   22.11786553  -30.64240649 -134.1249324  -145.19348093   -9.1680983   117.04604321  12.29236086  29.36799341 -98.95763339 -26.95603847 -20.48623959 125.96183997 -2.01145241  0.09712949 -2.80932232   11.44098774   -9.06784897 -103.39367241 -36.83277632 -10.97695456 125.86233354 -160.83568835  -10.62118601   15.84077814 -13.9845101  -11.26928226 106.98666631   35.80520259   -4.54658581 -122.10152524 -29.19532449   9.62844958  23.31303297 
